<?xml version="1.0" encoding="UTF-8"?>
<!DOCTYPE svg PUBLIC "-//W3C//DTD SVG 1.1//EN" "http://www.w3.org/Graphics/SVG/1.1/DTD/svg11.dtd">
<svg version="1.1" xmlns="http://www.w3.org/2000/svg" xmlns:xlink="http://www.w3.org/1999/xlink" x="0px" y="0px" width="250" height="162.068" viewBox="0, 0, 250, 162.068">
  <g id="Layer 1">
    <g>
      <path d="M99.904,34.88 C108.748,34.88 115.933,27.695 115.975,18.819 C115.933,9.968 108.748,2.785 99.904,2.751 C91.021,2.785 83.836,9.968 83.843,18.819 C83.836,27.697 91.021,34.88 99.904,34.88 z" fill-opacity="0" stroke="#333333" stroke-width="1.5"/>
      <path d="M41.315,119.292 L41.315,70.021 L70.009,54.552 L70.009,69.161 C69.995,71.938 70.758,73.136 71.816,74.143 L88.224,92.269 C95.591,99.732 106.152,89.439 99.479,81.964 L84.954,65.898 L84.954,35.312 C84.853,25.905 72.139,17.312 63.051,21.998 L24.65,42.7 C19.569,45.623 17.538,50.622 17.518,55.754 L17.518,119.464 C17.538,136.848 41.322,136.853 41.315,119.292 z" fill-opacity="0" stroke="#333333" stroke-width="1.5"/>
      <path d="M151.332,34.88 C160.22,34.88 167.401,27.695 167.396,18.819 C167.403,9.968 160.22,2.785 151.332,2.751 C142.493,2.785 135.303,9.968 135.269,18.819 C135.305,27.697 142.493,34.88 151.332,34.88 z" fill-opacity="0" stroke="#333333" stroke-width="1.5"/>
      <path d="M166.282,65.898 L151.762,81.964 C145.089,89.439 155.646,99.732 163.017,92.269 L179.423,74.143 C180.486,73.136 181.249,71.938 181.225,69.161 L181.225,54.552 L209.924,70.021 L209.924,119.295 C209.915,136.855 233.706,136.85 233.721,119.464 L233.721,55.754 C233.706,50.622 231.665,45.623 226.594,42.7 L188.193,21.998 C179.102,17.312 166.396,25.905 166.285,35.312 L166.285,65.898 z" fill-opacity="0" stroke="#333333" stroke-width="1.5"/>
      <path data-ignore="true" d="M185.379,132.481 L167.83,123.707 L167.145,123.364 C166.806,123.248 166.466,123.149 166.089,123.149 C165.261,123.149 164.529,123.483 163.942,123.98 L163.304,124.741 L138.419,152.607 L132.861,152.607 L141.083,132.481 L127.961,132.481 L122.037,132.481 L108.915,132.481 L117.136,152.607 L111.581,152.607 L86.693,124.743 L86.053,123.982 C85.466,123.485 84.737,123.152 83.909,123.152 C83.534,123.152 83.191,123.251 82.853,123.367 L82.17,123.71 L64.621,132.481 L4.242,132.481 L4.242,159.316 L125,159.316 L245.758,159.316 L245.758,132.481 L185.379,132.481 z" fill-opacity="0" stroke="#333333" stroke-width="1.5"/>
      <path data-ignore="true" d="M121.679,48.113 C121.679,74.948 121.679,101.782 121.679,128.617 C121.679,132.897 128.321,132.897 128.321,128.617 C128.321,101.782 128.321,74.945 128.321,48.113 C128.321,43.831 121.679,43.831 121.679,48.113 L121.679,48.113 z" fill-opacity="0" stroke="#333333" stroke-width="1.5"/>
      <path data-ignore="true" d="M116.218,110.404 C110.985,105.166 101.988,105.661 101.988,105.661 C101.988,105.661 101.493,114.655 106.732,119.891 C111.973,125.132 120.962,124.635 120.962,124.635 C120.962,124.635 121.459,115.641 116.218,110.404 z" fill-opacity="0" stroke="#333333" stroke-width="1.5"/>
      <path data-ignore="true" d="M116.218,76.86 C110.985,71.622 101.988,72.117 101.988,72.117 C101.988,72.117 101.493,81.111 106.732,86.347 C111.973,91.588 120.962,91.09 120.962,91.09 C120.962,91.09 121.459,82.099 116.218,76.86 z" fill-opacity="0" stroke="#333333" stroke-width="1.5"/>
      <path data-ignore="true" d="M133.781,96.986 C139.018,91.747 148.014,92.243 148.014,92.243 C148.014,92.243 148.509,101.239 143.271,106.473 C138.027,111.714 129.041,111.216 129.041,111.216 C129.041,111.216 128.541,102.224 133.781,96.986 z" fill-opacity="0" stroke="#333333" stroke-width="1.5"/>
      <path data-ignore="true" d="M133.781,63.442 C139.018,58.203 148.014,58.698 148.014,58.698 C148.014,58.698 148.509,67.695 143.271,72.928 C138.027,78.169 129.041,77.672 129.041,77.672 C129.041,77.672 128.541,68.68 133.781,63.442 z" fill-opacity="0" stroke="#333333" stroke-width="1.5"/>
    </g>
  </g>
  <defs/>
</svg>
