<?xml version="1.0" encoding="UTF-8"?>
<!DOCTYPE svg PUBLIC "-//W3C//DTD SVG 1.1//EN" "http://www.w3.org/Graphics/SVG/1.1/DTD/svg11.dtd">
<svg version="1.1" xmlns="http://www.w3.org/2000/svg" xmlns:xlink="http://www.w3.org/1999/xlink" x="0px" y="0px" width="249.999" height="250" viewBox="0, 0, 249.999, 250">
  <g id="Layer 1">
    <path d="M147.337,186.861 C153.145,182.886 160.966,177.437 172.011,169.724 C172.852,169.103 174.491,168.156 176.956,166.804 C179.623,165.382 182.506,164.681 185.52,164.681 L238.781,164.681 L238.781,117.454 L180.122,117.454 C175.632,117.454 170.574,118.104 165.119,119.376 C159.7,120.644 155.02,122.617 151.207,125.284 L95.846,165.735 C93.396,167.641 92.192,169.912 92.192,172.621 C92.192,174.022 92.508,175.628 93.139,177.35 C93.823,179.167 94.681,180.744 95.787,182.23 C96.91,183.723 98.098,184.885 99.448,185.794 C100.692,186.615 102.056,187.039 103.535,187.039 C105.183,187.039 106.722,186.439 108.255,185.255 L108.424,185.129 L135.127,168.96 L144.099,168.96 L110.861,189.029 C108.59,190.587 105.984,191.375 103.111,191.375 C99.241,191.375 95.806,189.57 92.883,185.994 C90.436,182.952 88.866,179.706 88.252,176.319 L38.113,176.319 C32.537,176.319 28.34,177.704 25.656,180.428 C22.921,183.181 21.59,185.973 21.59,188.994 C21.59,192.029 22.903,194.726 25.619,197.255 C28.302,199.791 32.507,201.054 38.115,201.054 L115.403,201.054 C118.157,201.054 120.658,200.808 123.022,200.229 C125.413,199.634 128.523,198.342 132.291,196.329 C136.163,194.248 141.218,191.063 147.337,186.861 z" fill-opacity="0" stroke="#FFFFFF" stroke-width="4.687"/>
    <path d="M79.37,73.436 C78.92,74.282 78.833,75.03 78.693,75.764 C83.544,75.002 91.186,69.954 90.821,63.042 C87.198,65.016 83.743,67.626 80.584,71.475 L79.37,73.436 z" fill-opacity="0" stroke="#FFFFFF" stroke-width="4.687"/>
    <path d="M66.876,75.257 C67.722,77.512 68.427,79.825 70.459,81.829 C75.758,69.562 76.295,58.505 66.367,49.946 C65.238,57.715 65.013,65.276 66.196,72.494 C66.51,73.38 66.733,74.325 66.876,75.257 z" fill-opacity="0" stroke="#FFFFFF" stroke-width="4.687"/>
    <path d="M31.227,91.178 C27.871,87.301 24.768,82.731 22.258,77.739 C19.029,71.196 17.69,63.141 12.218,59.492 C14.855,58.969 17.547,58.519 20.707,58.55 C22.061,58.55 23.388,58.55 24.742,58.55 C46.683,59.773 58.699,74.203 64.34,92.579 C64.734,93.875 65.498,95.609 65.411,96.287 C65.16,98.218 61.012,100.447 59.065,101.065 C48.94,104.48 39.465,98.799 34.33,94.285 C33.372,93.195 32.326,92.124 31.227,91.178 z" fill-opacity="0" stroke="#FFFFFF" stroke-width="4.687"/>
    <path d="M62.165,117.464 C70.12,93.716 81.177,72.984 110.735,70.758 L112.286,70.758 C113.259,70.758 114.201,70.758 115.195,70.758 C129.434,71.21 138.303,77.09 145.978,84.055 L147.687,85.776 C150.914,89.246 153.949,92.928 156.178,97.367 C131.438,95.239 124.956,113.937 102.223,114.841 C101.205,114.841 100.151,114.841 99.117,114.841 C85.946,113.979 78.798,107.126 71.76,100.133 C69.843,105.448 67.898,110.712 66.81,116.845 C65.585,124.021 65.048,131.905 65.104,140.366 L65.104,142.51 C65.018,143.452 65.385,143.989 65.245,144.992 C65.245,146.232 65.245,147.474 65.245,148.716 C65.189,152.238 65.61,156.272 64.171,158.458 C63.014,159.082 61.097,159.515 59.39,159.082 L58.603,158.756 C56.655,158.29 56.726,155.794 56.752,153.34 L56.752,152.253 C56.684,147.952 56.684,143.663 57.373,139.745 L57.373,138.659 C58.444,131.045 60.206,124.15 62.165,117.464 z M101.299,91.63 L100.973,91.63 C102.497,89.727 106.277,88.6 105.911,85.297 C105.74,83.577 103.343,82.419 101.597,82.335 C97.8,82.251 94.486,84.986 91.709,86.99 C88.508,89.345 85.686,91.628 83.631,93.648 L81.964,95.363 C80.933,96.352 79.792,97.198 79.03,98.483 C85.126,99.387 90.818,100.751 97.744,100.925 L100.043,101.063 L100.83,101.063 L102.975,100.925 C107.301,100.627 111.236,100.006 111.806,95.998 L111.806,94.435 L111.806,93.814 C110.732,92.263 108.642,91.7 106.078,91.628 L104.526,91.473 L103.116,91.473 L101.299,91.63 z" fill-opacity="0" stroke="#FFFFFF" stroke-width="4.687"/>
  </g>
  <defs/>
</svg>
