<?xml version="1.0" encoding="UTF-8"?>
<!DOCTYPE svg PUBLIC "-//W3C//DTD SVG 1.1//EN" "http://www.w3.org/Graphics/SVG/1.1/DTD/svg11.dtd">
<svg version="1.1" xmlns="http://www.w3.org/2000/svg" xmlns:xlink="http://www.w3.org/1999/xlink" x="0px" y="0px" width="249.999" height="155" viewBox="0, 0, 249.999, 155">
  <g id="Layer 1">
    <path d="M147.337,139.361 C153.145,135.386 160.966,129.937 172.011,122.224 C172.852,121.603 174.491,120.656 176.956,119.304 C179.623,117.882 182.506,117.181 185.52,117.181 L238.781,117.181 L238.781,69.954 L180.122,69.954 C175.632,69.954 170.574,70.604 165.119,71.876 C159.7,73.144 155.02,75.117 151.207,77.784 L95.846,118.235 C93.396,120.141 92.192,122.412 92.192,125.121 C92.192,126.522 92.508,128.128 93.139,129.85 C93.823,131.667 94.681,133.244 95.787,134.73 C96.91,136.223 98.098,137.385 99.448,138.294 C100.692,139.115 102.056,139.539 103.535,139.539 C105.183,139.539 106.722,138.939 108.255,137.755 L108.424,137.629 L135.127,121.46 L144.099,121.46 L110.861,141.529 C108.59,143.087 105.984,143.875 103.111,143.875 C99.241,143.875 95.806,142.07 92.883,138.494 C90.436,135.452 88.866,132.206 88.252,128.819 L38.113,128.819 C32.537,128.819 28.34,130.204 25.656,132.928 C22.921,135.681 21.59,138.473 21.59,141.494 C21.59,144.529 22.903,147.226 25.619,149.755 C28.302,152.291 32.507,153.554 38.115,153.554 L115.403,153.554 C118.157,153.554 120.658,153.308 123.022,152.729 C125.413,152.134 128.523,150.842 132.291,148.829 C136.163,146.748 141.218,143.563 147.337,139.361 z" fill-opacity="0" stroke="#FFFFFF" stroke-width="1.5"/>
    <path d="M79.37,25.936 C78.92,26.782 78.833,27.53 78.693,28.264 C83.544,27.502 91.186,22.454 90.821,15.542 C87.198,17.516 83.743,20.126 80.584,23.975 L79.37,25.936 z" fill-opacity="0" stroke="#FFFFFF" stroke-width="1.5"/>
    <path d="M66.876,27.757 C67.722,30.012 68.427,32.325 70.459,34.329 C75.758,22.062 76.295,11.005 66.367,2.446 C65.238,10.215 65.013,17.776 66.196,24.994 C66.51,25.88 66.733,26.825 66.876,27.757 z" fill-opacity="0" stroke="#FFFFFF" stroke-width="1.5"/>
    <path d="M31.227,43.678 C27.871,39.801 24.768,35.231 22.258,30.239 C19.029,23.696 17.69,15.641 12.218,11.992 C14.855,11.469 17.547,11.019 20.707,11.05 C22.061,11.05 23.388,11.05 24.742,11.05 C46.683,12.273 58.699,26.703 64.34,45.079 C64.734,46.375 65.498,48.109 65.411,48.787 C65.16,50.718 61.012,52.947 59.065,53.565 C48.94,56.98 39.465,51.299 34.33,46.785 C33.372,45.695 32.326,44.624 31.227,43.678 z" fill-opacity="0" stroke="#FFFFFF" stroke-width="1.5"/>
    <path d="M62.165,69.964 C70.12,46.216 81.177,25.484 110.735,23.258 L112.286,23.258 C113.259,23.258 114.201,23.258 115.195,23.258 C129.434,23.71 138.303,29.59 145.978,36.555 L147.687,38.276 C150.914,41.746 153.949,45.428 156.178,49.867 C131.438,47.739 124.956,66.437 102.223,67.341 C101.205,67.341 100.151,67.341 99.117,67.341 C85.946,66.479 78.798,59.626 71.76,52.633 C69.843,57.948 67.898,63.212 66.81,69.345 C65.585,76.521 65.048,84.405 65.104,92.866 L65.104,95.01 C65.018,95.952 65.385,96.489 65.245,97.492 C65.245,98.732 65.245,99.974 65.245,101.216 C65.189,104.738 65.61,108.772 64.171,110.958 C63.014,111.582 61.097,112.015 59.39,111.582 L58.603,111.256 C56.655,110.79 56.726,108.294 56.752,105.84 L56.752,104.753 C56.684,100.452 56.684,96.163 57.373,92.245 L57.373,91.159 C58.444,83.545 60.206,76.65 62.165,69.964 z M101.299,44.13 L100.973,44.13 C102.497,42.227 106.277,41.1 105.911,37.797 C105.74,36.077 103.343,34.919 101.597,34.835 C97.8,34.751 94.486,37.486 91.709,39.49 C88.508,41.845 85.686,44.128 83.631,46.148 L81.964,47.863 C80.933,48.852 79.792,49.698 79.03,50.983 C85.126,51.887 90.818,53.251 97.744,53.425 L100.043,53.563 L100.83,53.563 L102.975,53.425 C107.301,53.127 111.236,52.506 111.806,48.498 L111.806,46.935 L111.806,46.314 C110.732,44.763 108.642,44.2 106.078,44.128 L104.526,43.973 L103.116,43.973 L101.299,44.13 z" fill-opacity="0" stroke="#FFFFFF" stroke-width="1.5"/>
  </g>
  <defs/>
</svg>
