<?xml version="1.0" encoding="UTF-8"?>
<!DOCTYPE svg PUBLIC "-//W3C//DTD SVG 1.1//EN" "http://www.w3.org/Graphics/SVG/1.1/DTD/svg11.dtd">
<svg version="1.1" xmlns="http://www.w3.org/2000/svg" xmlns:xlink="http://www.w3.org/1999/xlink" x="0px" y="0px" width="249.999" height="210" viewBox="0, 0, 249.999, 210">
  <g id="XMLID_42_">
    <g>
      <path d="M124.658,83.951 L125.369,83.759 C125.396,83.595 125.423,83.458 125.478,83.322 C127.283,76.622 133.107,70.579 141.174,67.899 C155.858,63.032 176.096,71.974 175.027,92.564 C173.742,111.268 137.154,140.226 126.326,150.097 L125.752,150.398 C115.333,140.8 76.285,111.459 74.972,92.564 C73.906,71.976 94.114,63.032 108.825,67.899 C117.111,70.661 123.072,77.005 124.658,83.951 z" fill="#000000"/>
      <path d="M164.526,5.252 C200.457,-6.67 249.897,15.206 247.326,65.575 C244.1,111.952 151.374,184.743 126.353,207.932 C101.333,184.743 5.872,111.952 2.673,65.575 C0.102,15.206 49.514,-6.67 85.473,5.252 C107.513,12.581 122.826,30.3 125.013,49.004 C127.173,30.3 142.459,12.581 164.526,5.252 z M206.774,80.259 C208.497,46.598 175.437,31.968 151.428,39.953 C137.592,44.519 127.72,55.266 125.369,66.887 L124.63,67.024 C122.361,55.348 112.462,44.547 98.571,39.956 C74.535,31.971 41.502,46.6 43.225,80.259 C45.358,110.858 108.278,158.137 125.998,174.3 L126.107,174.38 C126.298,174.546 126.49,174.738 126.681,174.899 C143.416,159.395 204.614,111.268 206.774,80.259 z" fill="#000000"/>
      <path d="M125.031,83.969 z" fill="#000000"/>
      <path d="M125.094,66.812 z" fill="#000000"/>
    </g>
  </g>
  <defs/>
</svg>
