<?xml version="1.0" encoding="UTF-8"?>
<!DOCTYPE svg PUBLIC "-//W3C//DTD SVG 1.1//EN" "http://www.w3.org/Graphics/SVG/1.1/DTD/svg11.dtd">
<svg version="1.1" xmlns="http://www.w3.org/2000/svg" xmlns:xlink="http://www.w3.org/1999/xlink" x="0px" y="0px" width="285.475" height="215.631" viewBox="0, 0, 285.475, 215.631">
  <g id="Layer 1">
    <g>
      <path d="M99.47,133.691 Q100.219,133.416 100.965,133.377 Q101.711,133.338 102.44,133.495 Q103.169,133.653 103.856,133.971 Q104.544,134.289 105.148,134.716 Q105.646,134.063 106.239,133.544 Q106.831,133.024 107.58,132.749 Q108.073,132.568 108.634,132.542 Q109.194,132.515 109.729,132.721 Q110.263,132.928 110.716,133.399 Q111.168,133.87 111.465,134.679 Q111.747,135.448 111.743,136.076 Q111.739,136.704 111.52,137.175 Q111.302,137.647 110.906,137.971 Q110.511,138.295 110.018,138.476 Q109.19,138.78 108.132,138.609 Q107.074,138.438 105.833,137.619 Q105.088,138.452 104.357,139.357 Q103.627,140.263 103.013,141.271 Q103.644,141.465 104.418,141.472 Q105.192,141.478 106.001,141.427 L105.837,143.478 Q105.446,143.51 104.927,143.499 Q104.409,143.488 103.886,143.434 Q103.362,143.38 102.879,143.312 Q102.395,143.243 102.047,143.147 Q101.656,143.85 101.466,144.401 Q101.277,144.951 101.173,145.459 L98.937,144.915 Q98.998,144.289 99.228,143.634 Q99.457,142.98 99.835,142.304 Q98.948,141.958 98.15,141.278 Q97.352,140.598 96.882,139.317 Q96.556,138.43 96.544,137.573 Q96.531,136.716 96.851,135.972 Q97.171,135.229 97.827,134.641 Q98.484,134.053 99.47,133.691 z M100.893,140.372 Q101.649,139.2 102.409,138.194 Q103.169,137.187 103.949,136.387 Q103.006,135.95 102.201,135.798 Q101.396,135.646 100.508,135.972 Q99.503,136.341 99.147,137.109 Q98.792,137.877 99.125,138.784 Q99.356,139.415 99.877,139.828 Q100.398,140.241 100.893,140.372 z M108.323,135.139 Q107.456,135.457 106.759,136.362 Q107.461,136.753 107.999,136.846 Q108.537,136.939 108.931,136.795 Q109.384,136.628 109.594,136.316 Q109.804,136.004 109.645,135.571 Q109.5,135.176 109.138,135.074 Q108.776,134.972 108.323,135.139 z" fill="#FFFFFF"/>
      <path d="M112.851,165.99 Q112.154,165.829 111.439,165.223 Q110.724,164.617 110.184,163.894 Q109.505,162.985 109.232,161.97 Q108.959,160.955 109.242,159.826 Q109.526,158.697 110.452,157.481 Q111.379,156.264 113.095,154.983 Q114.878,153.65 116.338,153.149 Q117.799,152.648 118.956,152.74 Q120.113,152.833 120.989,153.41 Q121.866,153.987 122.469,154.795 Q123.085,155.619 123.409,156.334 Q123.733,157.048 123.854,157.561 L121.673,158.535 Q121.602,158.09 121.374,157.592 Q121.146,157.094 120.706,156.505 Q119.839,155.344 118.365,155.476 Q116.89,155.607 114.737,157.216 Q113.811,157.907 113.153,158.622 Q112.494,159.337 112.171,160.063 Q111.849,160.789 111.904,161.494 Q111.959,162.2 112.462,162.873 Q112.902,163.462 113.376,163.763 Q113.85,164.064 114.32,164.237 z" fill="#FFFFFF"/>
      <path d="M119.198,163.12 Q121.818,160.454 124.1,159.959 Q126.383,159.464 128.255,161.304 Q129.229,162.261 129.557,163.334 Q129.886,164.408 129.636,165.561 Q129.386,166.714 128.61,167.939 Q127.833,169.163 126.612,170.406 Q123.992,173.072 121.687,173.545 Q119.382,174.018 117.539,172.208 Q116.551,171.236 116.23,170.17 Q115.909,169.104 116.158,167.951 Q116.408,166.798 117.192,165.58 Q117.976,164.363 119.198,163.12 z M121.175,165.063 Q120.395,165.857 119.815,166.627 Q119.235,167.397 118.959,168.097 Q118.683,168.797 118.725,169.398 Q118.768,169.999 119.247,170.47 Q120.116,171.324 121.418,170.867 Q122.721,170.41 124.635,168.463 Q125.385,167.699 125.965,166.93 Q126.545,166.16 126.836,165.459 Q127.127,164.759 127.084,164.143 Q127.042,163.527 126.548,163.041 Q124.825,161.349 121.175,165.063 z" fill="#FFFFFF"/>
      <path d="M135.939,177.119 L137.816,175.002 L137.731,174.94 L135.632,176.538 L130.679,179.345 L129.962,178.832 L130.914,173.135 L131.761,170.617 L131.659,170.543 L130.333,173.081 L125.909,179.263 L123.877,177.809 L132.432,165.854 L134.498,167.333 L133.288,174.292 L132.635,176.071 L132.703,176.12 L134.184,174.881 L140.202,171.415 L142.234,172.869 L133.679,184.824 L131.528,183.284 z" fill="#FFFFFF"/>
      <path d="M148.539,183.834 L150.018,181.422 L149.923,181.377 L148.135,183.316 L143.749,186.945 L142.953,186.565 L142.896,180.789 L143.29,178.162 L143.176,178.107 L142.314,180.837 L139.038,187.697 L136.783,186.62 L143.119,173.355 L145.411,174.451 L145.435,181.514 L145.103,183.38 L145.179,183.416 L146.42,181.938 L151.74,177.474 L153.995,178.551 L147.659,191.815 L145.272,190.675 z" fill="#FFFFFF"/>
      <path d="M161.342,180.666 L163.744,181.356 L161.113,190.519 Q160.325,193.264 158.851,194.174 Q157.377,195.084 155.399,194.516 Q153.078,193.849 152.343,192.338 Q151.608,190.827 152.315,188.365 L155.044,178.858 L157.587,179.588 L154.985,188.651 Q154.51,190.306 154.766,191.09 Q155.022,191.873 156.051,192.169 Q157.04,192.453 157.664,191.878 Q158.288,191.303 158.74,189.729 z" fill="#FFFFFF"/>
      <path d="M167.327,189.422 L166.721,186.731 L166.617,186.717 L166.605,189.28 L165.617,196.479 L163.141,196.139 L165.154,181.471 L167.172,181.748 L170.349,189.646 L170.898,192.286 L171.023,192.303 L171.03,189.781 L172.026,182.521 L174.502,182.86 L172.489,197.528 L170.471,197.251 z" fill="#FFFFFF"/>
      <path d="M176.771,182.812 L179.416,182.895 L178.952,197.588 L176.307,197.505 z" fill="#FFFFFF"/>
      <path d="M190.454,184.619 L187.003,184.926 L188.088,197.142 L185.453,197.376 L184.367,185.16 L180.895,185.469 L180.679,183.042 L190.238,182.193 z" fill="#FFFFFF"/>
      <path d="M196.025,190.5 L190.234,182.289 L193.314,181.631 L196.469,186.647 L197.008,188.164 L197.11,188.142 L196.994,186.492 L197.791,180.674 L200.563,180.082 L198.608,189.927 L199.753,195.287 L197.166,195.84 z" fill="#FFFFFF"/>
      <path d="M218.235,179.972 L222.2,177.769 L225.361,183.46 Q225.039,184.479 224.288,185.269 Q223.538,186.058 222.638,186.558 Q221.555,187.159 220.46,187.263 Q219.365,187.367 218.296,186.892 Q217.227,186.417 216.189,185.348 Q215.151,184.279 214.172,182.517 Q213.152,180.681 212.852,179.19 Q212.552,177.699 212.779,176.528 Q213.005,175.358 213.696,174.505 Q214.388,173.652 215.379,173.102 Q216.26,172.612 217.072,172.365 Q217.884,172.119 218.473,172.055 L219.108,174.322 Q218.649,174.36 218.101,174.52 Q217.554,174.681 216.856,175.068 Q216.213,175.425 215.833,175.973 Q215.453,176.52 215.401,177.27 Q215.349,178.019 215.64,178.999 Q215.932,179.978 216.605,181.189 Q217.9,183.521 219.219,184.229 Q220.537,184.938 221.694,184.296 Q222.061,184.092 222.34,183.793 Q222.618,183.494 222.742,183.113 L221.284,180.488 L219.01,181.367 z" fill="#FFFFFF"/>
      <path d="M231.363,176.399 L228.585,178.469 L229.876,181.644 L227.771,183.212 L222.346,168.792 L224.013,167.551 L236.293,176.865 L234.07,178.521 z M227.735,176.379 L229.688,174.924 L226.97,172.68 L225.321,171.028 L225.253,171.078 L226.359,173.161 z" fill="#FFFFFF"/>
      <path d="M227.851,164.875 Q228.321,164.13 228.955,163.369 Q229.589,162.608 230.091,162.1 Q230.726,161.458 231.458,160.971 Q232.19,160.484 232.991,160.345 Q233.792,160.207 234.655,160.484 Q235.518,160.761 236.4,161.632 Q237.669,162.886 238.003,164.147 Q238.338,165.407 237.824,166.524 L238.893,166.398 L244.8,168.428 L242.66,170.593 L236.736,168.342 L235.745,168.956 L240.062,173.222 L238.202,175.104 z M234.46,167.687 L235.095,167.045 Q235.789,166.343 235.718,165.564 Q235.646,164.784 234.75,163.899 Q234.078,163.234 233.357,163.113 Q232.636,162.991 232.001,163.633 Q231.765,163.872 231.558,164.111 Q231.352,164.349 231.264,164.528 z" fill="#FFFFFF"/>
      <path d="M234.936,157.416 Q235.113,157.076 235.373,156.68 Q235.632,156.284 235.904,155.871 Q236.176,155.458 236.446,155.082 Q236.716,154.707 236.93,154.422 Q237.98,153.031 239.109,152.423 Q240.239,151.814 241.442,151.841 Q242.645,151.867 243.912,152.454 Q245.179,153.042 246.52,154.053 Q247.744,154.976 248.688,156.043 Q249.633,157.111 250.049,158.319 Q250.466,159.528 250.236,160.88 Q250.005,162.232 248.892,163.707 Q248.728,163.925 248.433,164.281 Q248.138,164.637 247.809,165.021 Q247.481,165.404 247.178,165.754 Q246.874,166.104 246.689,166.28 z M239.04,155.671 Q238.837,155.939 238.637,156.222 Q238.437,156.505 238.357,156.681 L246.438,162.776 Q246.493,162.739 246.596,162.619 Q246.699,162.5 246.815,162.364 Q246.931,162.227 247.034,162.108 Q247.137,161.989 247.175,161.938 Q247.744,161.184 247.759,160.432 Q247.773,159.68 247.395,158.961 Q247.017,158.242 246.336,157.558 Q245.656,156.873 244.817,156.241 Q244.046,155.659 243.256,155.208 Q242.465,154.756 241.724,154.605 Q240.983,154.454 240.296,154.685 Q239.609,154.917 239.04,155.671 z" fill="#FFFFFF"/>
      <path d="M241.27,148.637 L244.821,142.201 L246.954,143.378 L244.681,147.497 L247.844,149.241 L249.903,145.509 L252.036,146.685 L249.977,150.418 L253.287,152.244 L255.6,148.051 L257.733,149.228 L254.142,155.737 z" fill="#FFFFFF"/>
      <path d="M253.714,140.685 L250.957,140.646 L250.918,140.744 L253.408,141.354 L260.177,143.995 L259.269,146.323 L245.476,140.943 L246.216,139.045 L254.637,137.799 L257.332,137.881 L257.378,137.764 L254.928,137.169 L248.1,134.505 L249.008,132.177 L262.801,137.557 L262.061,139.455 z" fill="#FFFFFF"/>
    </g>
    <g>
      <path d="M135.69,30.001 L131.186,33.062 L142.019,49.001 L138.58,51.338 L127.747,35.399 L123.217,38.478 L121.065,35.312 L133.538,26.835 z" fill="#FFFFFF"/>
      <path d="M157.362,31.433 L151.384,33.432 L154.482,42.695 L150.539,44.014 L143.212,22.107 L147.155,20.788 L150.17,29.801 L156.147,27.802 L153.133,18.789 L157.076,17.47 L164.403,39.377 L160.46,40.696 z" fill="#FFFFFF"/>
      <path d="M169.116,15.593 Q170.457,15.244 172.001,15.053 Q173.546,14.861 174.667,14.818 Q176.085,14.763 177.448,14.991 Q178.811,15.219 179.878,15.921 Q180.945,16.623 181.638,17.868 Q182.33,19.112 182.405,21.058 Q182.513,23.861 181.542,25.665 Q180.572,27.469 178.783,28.199 L180.143,29.203 L184.738,37.876 L179.957,38.061 L175.582,29.115 L173.785,28.755 L174.153,38.285 L169.998,38.445 z M173.676,25.919 L175.094,25.865 Q176.643,25.805 177.399,24.834 Q178.154,23.864 178.077,21.885 Q178.02,20.402 177.324,19.487 Q176.628,18.573 175.211,18.628 Q174.683,18.648 174.19,18.7 Q173.696,18.752 173.403,18.862 z" fill="#FFFFFF"/>
      <path d="M193.623,16.057 L197.716,16.788 L193.651,39.528 L189.558,38.796 z" fill="#FFFFFF"/>
      <path d="M209.182,34.256 L208.13,38.102 L208.253,38.151 L210.235,34.645 L218.415,23.355 L222.486,24.995 L207.3,43.958 L204.361,42.774 L206.509,18.556 L211.069,20.394 z" fill="#FFFFFF"/>
      <path d="M230.898,30.278 L240.127,37.222 L237.826,40.281 L231.919,35.837 L228.507,40.373 L233.86,44.4 L231.558,47.459 L226.205,43.431 L222.634,48.178 L228.646,52.702 L226.345,55.76 L217.01,48.737 z" fill="#FFFFFF"/>
    </g>
    <text transform="matrix(1, 0, 0, 1, 117.195, 134.259)">
      <tspan x="-92.175" y="-26.5" font-family="KGSecondChancesSketch" font-size="27" fill="#FAFAFA">neighborhood</tspan>
      <tspan x="7.308" y="4.1" font-family="KGSecondChancesSketch" font-size="27" fill="#FAFAFA">market</tspan>
    </text>
    <path d="M220.495,19.488 C220.684,19.313 220.969,19.942 220.983,20.139 C221.137,20.139 221.579,20.629 221.664,20.557 C222.745,19.705 220.801,19.207 220.495,19.488" fill="#D6D4C6"/>
    <path d="M136.101,13.305 C135.282,13.251 134.946,12.941 134.781,13.802 C135.618,13.518 135.817,13.983 136.101,13.305" fill="#D6D4C6"/>
    <path d="M129.53,92.226 C131.395,94.158 131.529,92.033 129.53,92.226" fill="#D6D4C6"/>
    <path d="M155.032,125.921 C155.01,125.816 153.691,125.993 153.721,126.636 C154.232,126.117 155.206,126.874 155.723,126.331 C155.497,126.581 155.062,126.013 155.032,125.921" fill="#D6D4C6"/>
    <path d="M84.625,149.685 L84.591,149.617 L84.625,149.685" fill="#D6D4C6"/>
    <path d="M176.696,41.038 C176.417,40.618 174.724,41.367 175.382,41.763 C175.485,41.212 176.833,41.804 176.696,41.038" fill="#D6D4C6"/>
    <path d="M161.426,11.214 C161.544,11.652 161.986,11.453 162.333,11.186 C163.299,10.42 161.258,10.53 161.426,11.214" fill="#D6D4C6"/>
    <path d="M166.651,11.123 C176.437,9.948 186.404,10.273 196.183,12.099 L196.813,11.296 L197.105,11.518 L196.586,12.179 C200.612,12.947 204.603,13.949 208.541,15.237 L209.441,14.087 C171.007,1.294 127.047,13.101 100.572,46.775 C93.413,55.881 88.128,65.861 84.621,76.24 C85.02,76.668 85.36,77.094 85.641,77.508 C89.086,66.973 94.408,56.854 101.657,47.63 C118.279,26.48 141.894,14.076 166.651,11.123" fill="#BBBBBB"/>
    <path d="M174.219,41.214 L174.792,41.665 L174.171,42.461 C189.79,41.244 205.806,45.605 219.01,55.951 C224.992,60.67 229.904,66.255 233.73,72.382 C233.949,72.494 234.181,72.642 234.518,72.88 L234.964,72.31 L235.679,72.869 C235.318,72.26 234.943,71.662 234.562,71.06 L234.559,71.062 L233.991,70.617 L234.133,70.399 C230.348,64.623 225.595,59.353 219.871,54.852 C214.811,50.871 209.335,47.78 203.634,45.507 C203.606,45.564 203.574,45.639 203.532,45.747 L203.246,45.523 L203.353,45.395 C194.04,41.734 184.128,40.318 174.353,41.049 L174.219,41.214" fill="#BBBBBB"/>
    <path d="M252.644,172.79 C253.755,171.517 254.83,170.216 255.882,168.876 C289.604,125.983 282.167,63.883 239.279,30.169 C230.151,22.992 220.14,17.697 209.734,14.193 C209.52,14.576 209.264,14.998 208.996,15.398 C219.369,18.852 229.334,24.107 238.422,31.256 C259.574,47.876 271.972,71.494 274.934,96.248 C277.904,120.994 271.427,146.875 254.796,168.022 C238.178,189.167 214.563,201.575 189.806,204.537 C165.35,207.462 139.793,201.155 118.786,184.962 C118.473,185.303 118.162,185.645 117.845,185.99 C159.169,217.916 217.931,212.022 252.15,173.326 L251.113,172.508 L251.561,171.933 L252.644,172.79" fill="#BBBBBB"/>
    <path d="M174.057,42.014 L172.982,41.17 C172.514,41.221 172.048,41.265 171.577,41.32 C171.36,41.506 171.149,41.691 170.927,41.869 L170.402,41.459 C153.589,43.715 137.514,52.351 126.084,66.834 C125.923,67.04 125.783,67.255 125.615,67.462 C126.025,67.754 126.424,68.031 126.75,68.266 C126.897,68.076 127.033,67.885 127.18,67.696 C139.057,52.591 156.085,44.011 173.669,42.509 L174.057,42.014" fill="#BBBBBB"/>
    <path d="M243.051,25.376 C197.508,-10.431 131.575,-2.538 95.77,43.004 C88.391,52.398 82.897,62.662 79.178,73.347 C79.386,73.404 79.591,73.458 79.846,73.515 L80.069,73.227 C80.66,73.385 81.269,73.669 81.871,74.018 C85.491,63.706 90.815,53.791 97.95,44.719 C115.381,22.541 140.133,9.541 166.087,6.432 C192.04,3.327 219.17,10.11 241.346,27.546 C263.517,44.97 276.51,69.729 279.625,95.685 C282.729,121.638 275.941,148.761 258.512,170.939 C257.457,172.274 256.378,173.581 255.273,174.849 L255.857,175.309 L256.308,174.736 L256.876,175.182 C256.484,175.493 256.088,175.8 255.689,176.109 L254.783,175.396 C237.644,194.849 214.528,206.322 190.372,209.217 C164.415,212.327 137.293,205.538 115.119,188.11 C93.846,171.385 81.036,147.915 77.29,123.115 C76.912,123.529 76.879,123.724 76.134,124.766 L75.558,124.311 C76.324,123.126 76.043,122.784 76.788,121.575 L76.216,121.127 L75.766,121.7 L74.619,120.798 L74.233,121.294 C77.515,146.658 90.024,170.83 111.106,188.379 L114.953,191.404 L115.402,190.83 L116.261,191.51 C116.12,191.706 115.982,191.91 115.861,192.111 C161.286,225.761 225.511,217.378 260.677,172.643 C296.48,127.102 288.586,61.169 243.051,25.376" fill="#BBBBBB"/>
    <path d="M117.249,185.544 C117.547,185.181 117.84,184.824 118.14,184.479 L118.032,184.401 C99.174,169.569 87.292,149.177 82.828,127.393 L82.691,127.614 L81.265,126.49 L81.256,126.501 C85.58,149.036 97.71,170.183 117.177,185.487 L117.249,185.544" fill="#BBBBBB"/>
    <g>
      <path d="M261.663,113.038 C259.962,108.294 255.755,104.905 250.163,103.107 C252.545,105.341 254.968,108.271 257.1,111.641 C258.391,113.693 259.462,115.714 260.285,117.623 C257.533,115.286 254.632,111.928 252.14,107.975 C251.111,106.36 250.244,104.75 249.504,103.206 C248.999,105.827 249.101,108.436 249.98,110.889 C251.743,115.814 256.201,119.29 262.095,121.039 C262.68,118.308 262.581,115.592 261.663,113.038" fill="#45F600"/>
      <path d="M255.805,85.385 C251.99,87.642 249.858,91.977 249.351,97.29 C250.845,94.801 252.933,92.164 255.461,89.733 C256.995,88.254 258.55,86.974 260.055,85.944 C258.553,88.794 256.181,91.919 253.22,94.78 C252.006,95.953 250.775,96.985 249.575,97.888 C251.952,97.951 254.196,97.455 256.172,96.3 C260.119,93.952 262.298,89.401 262.693,83.798 C260.201,83.678 257.852,84.174 255.805,85.385" fill="#45F600"/>
      <path d="M263.395,101.585 C260.185,100.012 256.669,99.784 253.431,100.637 C255.585,100.91 258.129,101.477 260.783,102.318 C262.391,102.83 263.903,103.398 265.25,103.985 C262.884,103.781 259.925,103.168 256.811,102.182 C255.53,101.778 254.328,101.335 253.206,100.881 C254.386,102.172 255.809,103.271 257.463,104.089 C260.792,105.712 264.456,105.922 267.795,104.95 C266.593,103.585 265.117,102.431 263.395,101.585" fill="#45F600"/>
    </g>
    <g>
      <path d="M183.426,174.476 L183.292,174.641 C173.517,175.372 163.605,173.956 154.292,170.295 L154.399,170.167 L154.113,169.943 C154.071,170.051 154.039,170.126 154.011,170.183 C148.31,167.91 142.834,164.819 137.774,160.838 C132.05,156.337 127.297,151.067 123.512,145.291 L123.654,145.073 L123.086,144.628 L123.083,144.63 C122.702,144.028 122.327,143.43 121.966,142.821 L122.681,143.38 L123.127,142.81 C123.464,143.048 123.696,143.196 123.915,143.308 C127.741,149.435 132.653,155.02 138.635,159.739 C151.839,170.085 167.855,174.446 183.474,173.229 L182.853,174.025 L183.426,174.476" fill="#BBBBBB"/>
      <path d="M183.587,173.676 L183.976,173.181 C201.559,171.679 218.587,163.099 230.464,147.994 C230.611,147.805 230.747,147.614 230.894,147.424 C231.22,147.659 231.619,147.936 232.029,148.228 C231.861,148.435 231.721,148.65 231.56,148.856 C220.13,163.339 204.056,171.975 187.242,174.231 L186.717,173.821 C186.495,173.999 186.284,174.184 186.067,174.37 C185.596,174.425 185.13,174.469 184.662,174.52 L183.587,173.676" fill="#BBBBBB"/>
    </g>
    <g>
      <path d="M246.393,86.577 L246.518,121.539" fill-opacity="0" stroke="#FFFFFF" stroke-width="1.5"/>
      <path d="M240.179,100.952 L252.706,101.006" fill-opacity="0" stroke="#FFFFFF" stroke-width="1.5"/>
    </g>
  </g>
  <defs/>
</svg>
