<?xml version="1.0" encoding="UTF-8"?>
<!DOCTYPE svg PUBLIC "-//W3C//DTD SVG 1.1//EN" "http://www.w3.org/Graphics/SVG/1.1/DTD/svg11.dtd">
<svg version="1.1" xmlns="http://www.w3.org/2000/svg" xmlns:xlink="http://www.w3.org/1999/xlink" x="0px" y="0px" width="125.55" height="44.55" viewBox="0, 0, 125.55, 44.55">
  <g id="Layer 1">
    <g>
      <path d="M25.881,34.309 C23.955,28.938 19.192,25.1 12.86,23.064 C15.557,25.594 18.301,28.912 20.715,32.727 C22.177,35.051 23.389,37.339 24.321,39.501 C21.205,36.855 17.92,33.052 15.099,28.576 C13.933,26.748 12.952,24.925 12.114,23.177 C11.542,26.144 11.658,29.098 12.653,31.876 C14.649,37.453 19.696,41.388 26.371,43.369 C27.033,40.276 26.921,37.201 25.881,34.309" fill="#45F600"/>
      <path d="M19.247,2.998 C14.928,5.554 12.514,10.462 11.94,16.478 C13.631,13.66 15.995,10.674 18.858,7.921 C20.595,6.246 22.356,4.797 24.06,3.631 C22.359,6.858 19.673,10.396 16.32,13.636 C14.946,14.964 13.552,16.133 12.193,17.155 C14.885,17.226 17.426,16.665 19.663,15.357 C24.132,12.698 26.599,7.545 27.047,1.201 C24.225,1.065 21.565,1.627 19.247,2.998" fill="#45F600"/>
      <path d="M27.841,21.341 C24.207,19.56 20.226,19.302 16.559,20.268 C18.998,20.577 21.879,21.219 24.884,22.171 C26.705,22.751 28.417,23.394 29.942,24.059 C27.263,23.828 23.912,23.134 20.386,22.017 C18.936,21.56 17.575,21.058 16.305,20.544 C17.641,22.006 19.252,23.25 21.125,24.176 C24.894,26.014 29.043,26.252 32.824,25.151 C31.463,23.606 29.791,22.299 27.841,21.341" fill="#45F600"/>
    </g>
    <g>
      <path d="M8.525,8.492 L8.596,41.058" fill-opacity="0" stroke="#FFFFFF" stroke-width="2"/>
      <path d="M1.488,20.31 L15.672,20.3" fill-opacity="0" stroke="#FFFFFF" stroke-width="2"/>
    </g>
    <path d="M54.342,18.44 L49.858,18.44 L49.858,34.31 L46.434,34.31 L46.434,18.44 L41.923,18.44 L41.923,15.288 L54.342,15.288 z" fill="#45F600"/>
    <path d="M66.57,26.267 L61.38,26.267 L61.38,34.31 L57.956,34.31 L57.956,15.288 L61.38,15.288 L61.38,23.114 L66.57,23.114 L66.57,15.288 L69.994,15.288 L69.994,34.31 L66.57,34.31 z" fill="#45F600"/>
    <path d="M74.614,15.478 Q75.728,15.234 77.006,15.125 Q78.283,15.016 79.207,15.016 Q80.375,15.016 81.49,15.247 Q82.604,15.478 83.46,16.09 Q84.316,16.701 84.846,17.747 Q85.376,18.793 85.376,20.397 Q85.376,22.707 84.52,24.161 Q83.664,25.614 82.169,26.158 L83.256,27.027 L86.761,34.31 L82.821,34.31 L79.506,26.81 L78.038,26.457 L78.038,34.31 L74.614,34.31 z M78.038,24.12 L79.207,24.12 Q80.484,24.12 81.136,23.345 Q81.788,22.571 81.788,20.94 Q81.788,19.717 81.245,18.943 Q80.701,18.168 79.533,18.168 Q79.098,18.168 78.691,18.196 Q78.283,18.223 78.038,18.304 z" fill="#45F600"/>
    <path d="M90.756,15.288 L94.18,15.288 L94.18,34.31 L90.756,34.31 z" fill="#45F600"/>
    <path d="M104.48,26.457 L104.86,29.718 L104.969,29.718 L105.404,26.43 L108.175,15.288 L111.79,15.288 L106.029,34.446 L103.42,34.446 L97.604,15.288 L101.653,15.288 z" fill="#45F600"/>
    <path d="M114.942,15.288 L124.453,15.288 L124.453,18.44 L118.366,18.44 L118.366,23.114 L123.883,23.114 L123.883,26.267 L118.366,26.267 L118.366,31.158 L124.562,31.158 L124.562,34.31 L114.942,34.31 z" fill="#45F600"/>
  </g>
  <defs/>
</svg>
